PathFileType	4	(X/Y/Z)	C:\Git\research_data\Projects\torsion_deformities_healthy_kinematics\simulations\P01\pre\dynamic06_l\marker_experimental.trc
DataRate	CameraRate	NumFrames	NumMarkers	Units	OrigDataRate	OrigDataStartFrame	OrigNumFrames
200	200	5	34	mm	200	774	884
Frame#	Time	C7			T10			CLAV			STRN			RBAK			LASI			RASI			SACR			LT1			LT2			LT3			LS1			LS2			LS3			LHEE			LTOE			RT1			RT2			RT3			RS1			RS2			RS3			RHEE			RTOE			LKNE			LANK			RKNE			RANK			LAJC			LKJC			RAJC			RKJC			RHJC			LHJC		
		X1	Y1	Z1	X2	Y2	Z2	X3	Y3	Z3	X4	Y4	Z4	X5	Y5	Z5	X6	Y6	Z6	X7	Y7	Z7	X8	Y8	Z8	X9	Y9	Z9	X10	Y10	Z10	X11	Y11	Z11	X12	Y12	Z12	X13	Y13	Z13	X14	Y14	Z14	X15	Y15	Z15	X16	Y16	Z16	X17	Y17	Z17	X18	Y18	Z18	X19	Y19	Z19	X20	Y20	Z20	X21	Y21	Z21	X22	Y22	Z22	X23	Y23	Z23	X24	Y24	Z24	X25	Y25	Z25	X26	Y26	Z26	X27	Y27	Z27	X28	Y28	Z28	X29	Y29	Z29	X30	Y30	Z30	X31	Y31	Z31	X32	Y32	Z32	X33	Y33	Z33	X34	Y34	Z34	

774	3.865000	2017.442139	1009.725037	-311.147797	1992.594971	834.123352	-309.840179	2137.118408	971.516785	-300.077271	2185.239014	841.834961	-301.791443	1989.020996	954.530457	-228.153152	2108.483154	668.332703	-419.513062	2134.205322	666.043640	-205.453506	1974.270386	722.133301	-294.498901	2036.026855	484.799927	-445.694794	1955.271606	429.931488	-439.526855	2088.577148	373.577057	-427.322113	1943.020874	248.722137	-433.930664	1827.666992	211.581894	-457.917450	1952.616089	152.802200	-415.990204	1793.854858	67.107834	-393.059021	1931.357422	40.909916	-375.277557	2122.453857	508.779694	-157.319870	2090.844727	419.920776	-169.094482	2227.088379	452.314789	-171.353088	2214.569580	290.771515	-165.574493	2156.364746	191.485168	-125.706047	2285.078125	225.873474	-175.396927	2230.020020	35.469742	-188.723145	2363.204102	92.858459	-208.564514	1979.206177	341.075134	-420.476929	1840.367798	51.277355	-413.959259	2185.630615	351.614044	-186.760529	2277.374756	60.962166	-159.378723	1839.858765	49.772690	-380.100220	1989.023560	329.611115	-371.254364	2270.895020	61.021919	-195.680206	2187.675293	351.040710	-240.546509	2060.019990	612.119652	-226.682574	2041.301599	613.785436	-382.456785	
775	3.870000	2023.926758	1008.635681	-309.957550	1999.298218	832.966675	-308.867859	2143.849121	970.509827	-298.652435	2192.001465	840.874512	-300.409943	1995.488525	953.302917	-227.037399	2115.397705	667.237549	-418.755615	2141.366455	664.868408	-204.550568	1981.219727	720.897034	-293.610168	2041.366455	484.125763	-445.253021	1960.185425	429.828094	-438.726288	2093.170898	372.434784	-427.920288	1946.401245	248.702896	-433.889496	1830.465088	213.321884	-457.893921	1954.668091	152.655853	-416.174438	1794.742310	69.231712	-393.485229	1931.878662	40.927628	-375.374695	2129.868164	507.710754	-156.432495	2098.498535	418.855835	-168.482773	2234.697754	451.623627	-170.649857	2222.194092	289.878113	-165.278748	2163.593506	190.484955	-126.073067	2292.563721	224.869919	-175.106812	2237.280273	34.946835	-188.835983	2370.367676	91.850899	-208.914398	1983.566162	340.734680	-420.363800	1840.868286	52.741695	-414.319702	2193.549072	350.845093	-186.382645	2284.389160	59.883522	-159.848801	1840.359375	51.163315	-380.464050	1993.682617	328.918549	-371.285309	2278.055664	60.120239	-196.175369	2195.595215	350.452820	-240.170197	2067.166583	610.852854	-225.753131	2048.270176	612.576782	-381.621465	
776	3.875000	2030.426514	1007.587708	-308.728363	2006.027344	831.852905	-307.882690	2150.590332	969.559204	-297.192780	2198.802246	839.984802	-298.987030	2001.983521	952.101990	-225.874756	2122.417969	666.181702	-417.940735	2148.563721	663.779114	-203.601486	1988.206543	719.699646	-292.744598	2046.960205	483.455414	-444.786072	1965.386108	429.678375	-437.984161	2098.047607	371.338531	-428.445404	1950.042114	248.684113	-433.893707	1833.545044	215.149719	-457.999573	1956.900024	152.534012	-416.370575	1795.784302	71.580032	-393.951782	1932.467651	40.941814	-375.471497	2137.429443	506.759735	-155.569550	2106.302979	417.917297	-167.887909	2242.463623	451.054749	-170.005295	2229.665283	288.896423	-165.052032	2170.258789	189.509583	-126.717445	2299.694092	223.559860	-174.829544	2243.655273	34.448555	-189.034500	2376.768555	90.219017	-209.409790	1988.233032	340.373596	-420.289978	1841.494019	54.333752	-414.757141	2201.627686	350.208130	-186.053635	2290.456055	58.507187	-160.524124	1840.954590	52.691406	-380.904968	1998.599243	328.205353	-371.349823	2284.338379	58.980583	-196.885330	2203.659180	349.999542	-239.842758	2074.367225	609.658457	-224.787298	2055.343290	611.406606	-380.742879	
777	3.880000	2036.940918	1006.588135	-307.463348	2012.779663	830.789551	-306.886383	2157.340332	968.671082	-295.702332	2205.639648	839.171631	-297.528748	2008.506104	950.934998	-224.667709	2129.543457	665.168152	-417.057434	2155.793457	662.785950	-202.608414	1995.225342	718.549011	-291.900238	2052.830811	482.787872	-444.289825	1970.905273	429.468445	-437.309753	2103.249512	370.292664	-428.886475	1953.971680	248.661163	-433.939911	1836.934937	217.065842	-458.221863	1959.334473	152.436111	-416.570526	1797.012329	74.176079	-394.433685	1933.125732	40.945091	-375.560455	2145.124023	505.926392	-154.742264	2114.230469	417.103302	-167.322067	2250.357910	450.588287	-169.426132	2237.006348	287.852814	-164.900345	2176.420410	188.599457	-127.591400	2306.500977	221.984711	-174.582047	2249.199951	33.995686	-189.278992	2382.452637	87.990936	-210.032501	1993.252319	339.978943	-420.261658	1842.265991	56.064373	-415.250793	2209.819580	349.688690	-185.780319	2295.647705	56.889801	-161.367065	1841.667847	54.371017	-381.402130	2003.814941	327.461426	-371.451752	2289.802490	57.644112	-197.768356	2211.821533	349.664917	-239.570953	2081.619472	608.549930	-223.783639	2062.520682	610.283155	-379.810946	
778	3.885000	2043.469238	1005.643677	-306.165924	2019.551392	829.783813	-305.880859	2164.096924	967.851196	-294.185669	2212.510498	838.439880	-296.041931	2015.056152	949.809021	-223.418930	2136.771973	664.200500	-416.095093	2163.051270	661.897339	-201.575516	2002.270264	717.452271	-291.074890	2058.998047	482.122437	-443.762329	1976.772949	429.183533	-436.712494	2108.819580	369.302612	-429.235504	1958.217163	248.630859	-434.024445	1840.660767	219.072754	-458.539032	1961.994751	152.362991	-416.768158	1798.462036	77.042892	-394.902649	1933.852417	40.928703	-375.633759	2152.934326	505.208252	-153.960632	2122.250000	416.409088	-166.794662	2258.348877	450.203033	-168.917389	2244.243652	286.778351	-164.827347	2182.152832	187.804977	-128.635529	2313.020264	220.195572	-174.382446	2253.979736	33.611782	-189.532898	2387.471436	85.216309	-210.761581	1998.670776	339.536346	-420.285400	1843.207520	57.946087	-415.774231	2218.074707	349.269409	-185.566116	2300.053711	55.101372	-162.333588	1842.527588	56.217209	-381.928925	2009.374146	326.675781	-371.595490	2294.521240	56.163002	-198.776047	2220.033691	349.429352	-239.358093	2088.920184	607.539728	-222.742660	2069.800675	609.215393	-378.816424	
